<svg id="Layer_1" data-name="Layer 1" xmlns="http://www.w3.org/2000/svg" viewBox="0 0 580.99 581.37"><defs><style>.cls-1{fill:#28aadc;}.cls-2{fill:#ffd5a2;}</style></defs><title>Speakbox logo beach</title><path class="cls-1" d="M690.87,383.44a254.81,254.81,0,0,1,45,144.78c0,143.85-119.54,260.47-267,260.47s-267-116.62-267-260.47a254.49,254.49,0,0,1,36.85-132.08c-39.74-10.46-69-45.87-69-87.95,0-50.31,41.8-91.09,93.37-91.09,46.11,0,84.4,32.59,92,75.44A273.88,273.88,0,0,1,565,285.13c6.59-44,45.44-77.81,92.38-77.81,51.56,0,93.37,40.78,93.37,91.09C750.71,337.19,725.87,370.3,690.87,383.44Z" transform="translate(-169.72 -207.32)"/><path class="cls-2" d="M470.15,708.66a122.21,122.21,0,0,0-8.73,9.61c-7.34,9.08-13.22,19.64-14.92,31.32v.33a48.33,48.33,0,0,0-.76,5.87,28.79,28.79,0,0,0,5.51,19.59,24.77,24.77,0,0,0,4.66,5.3,24.12,24.12,0,0,0,29.26,0,24.77,24.77,0,0,0,4.66-5.3,28.79,28.79,0,0,0,5.51-19.59,48.33,48.33,0,0,0-.76-5.87v-.33c-1.7-11.68-7.58-22.24-14.92-31.32a122.21,122.21,0,0,0-8.73-9.61l-.35.36Z" transform="translate(-169.72 -207.32)"/><path class="cls-2" d="M650.1,476.09c-7.23-21.75-22.23-41.61-42.8-52.25-22.2-11.48-48.65-8.57-71.81.29a119.21,119.21,0,0,0-32.38,18.74,125.9,125.9,0,0,0-33.35,41.43,117.36,117.36,0,0,0-31.87-41.43,114.2,114.2,0,0,0-32.38-18.74c-23.16-8.86-49.61-11.77-71.81-.29-20.57,10.64-35.57,30.5-42.8,52.25-8.53,25.69-5.76,53.84,3.65,78.88,8.68,23.13,23.49,43.35,41.64,60,20.19,18.42,43.64,33,66.81,47.42,21.47,13.34,44.44,25.33,63.2,42.49,1.33,1.21,2.65,2.48,4,3.78l.35-.34.35.34c1.32-1.3,2.64-2.57,4-3.78,18.76-17.16,41.73-29.15,63.2-42.49,23.15-14.39,46.6-29,66.79-47.46,18.15-16.61,33-36.83,41.64-60C655.86,529.93,658.63,501.78,650.1,476.09Z" transform="translate(-169.72 -207.32)"/></svg>