<?xml version="1.0" encoding="utf-8"?>
<!-- Generator: Adobe Illustrator 22.1.0, SVG Export Plug-In . SVG Version: 6.00 Build 0)  -->
<svg version="1.1" id="Layer_1" xmlns="http://www.w3.org/2000/svg" xmlns:xlink="http://www.w3.org/1999/xlink" x="0px" y="0px"
	 viewBox="0 0 584.9 581.4" style="enable-background:new 0 0 584.9 581.4;" xml:space="preserve">
<style type="text/css">
	.st0{fill:#EF84A0;}
	.st1{fill:#F7BFD0;}
</style>
<title>Speakbox logo pink</title>
<path class="st0" d="M525.1,176.1c29.3,42.6,45,93.1,45,144.8c0,143.8-119.5,260.5-267,260.5s-267-116.6-267-260.5
	c0-46.6,12.7-92.3,36.9-132.1c-39.7-10.5-69-45.9-69-88c0-50.3,41.8-91.1,93.4-91.1c46.1,0,84.4,32.6,92,75.4
	C255.5,55,331,52.3,399.2,77.8c6.6-44,45.4-77.8,92.4-77.8C543.2,0,585,40.8,585,91.1C584.9,129.9,560.1,163,525.1,176.1z"/>
<path class="st1" d="M304.4,501.3c-3.1,3-6,6.3-8.7,9.6c-7.3,9.1-13.2,19.6-14.9,31.3v0.3c-0.4,1.9-0.6,3.9-0.8,5.9
	c-0.6,7,1.3,13.9,5.5,19.6c1.3,2,2.9,3.8,4.7,5.3c8.6,6.6,20.6,6.6,29.3,0c1.8-1.5,3.4-3.3,4.7-5.3c4.2-5.6,6.1-12.6,5.5-19.6
	c-0.1-2-0.4-3.9-0.8-5.9v-0.3c-1.7-11.7-7.6-22.2-14.9-31.3c-2.7-3.4-5.7-6.6-8.7-9.6l-0.4,0.4L304.4,501.3z"/>
<path class="st1" d="M484.3,268.8c-7.2-21.8-22.2-41.6-42.8-52.2c-22.2-11.5-48.7-8.6-71.8,0.3c-11.7,4.5-22.6,10.8-32.4,18.7
	C323.4,246.8,312,261,304,277c-7.4-16-18.3-30.2-31.9-41.4c-9.7-8-20.6-14.3-32.4-18.7c-23.2-8.9-49.6-11.8-71.8-0.3
	c-20.6,10.6-35.6,30.5-42.8,52.2c-8.5,25.7-5.8,53.8,3.7,78.9c8.7,23.1,23.5,43.3,41.6,60c20.2,18.4,43.6,33,66.8,47.4
	c21.5,13.3,44.4,25.3,63.2,42.5c1.3,1.2,2.6,2.5,4,3.8l0.4-0.3l0.4,0.3c1.3-1.3,2.6-2.6,4-3.8c18.8-17.2,41.7-29.2,63.2-42.5
	c23.2-14.4,46.6-29,66.8-47.5c18.2-16.6,33-36.8,41.6-60C490.1,322.6,492.9,294.5,484.3,268.8z"/>
</svg>
