<svg xmlns="http://www.w3.org/2000/svg" xmlns:xlink="http://www.w3.org/1999/xlink" version="1.1" x="0px" y="0px" viewBox="0 0 52 65" style="enable-background:new 0 0 52 52;" xml:space="preserve"><style type="text/css">
	.st0{fill:none;stroke:#000000;stroke-width:2;stroke-linecap:round;stroke-linejoin:round;stroke-miterlimit:10;}
</style><g><g><path d="M10.7565603,50.0014648c-2.0097656,0-3.2119141-0.2763672-3.3193359-0.3017578    c-2.984375-0.984375-4.7314453-2.4755859-5.2753906-4.453125c-0.6210939-2.2558594,0.5771484-4.6308594,2.9140623-5.7744141    c5.0927734-2.4931641,10.3554688-0.9794922,12.4101572-0.1992188l1.6220703-3.0039063    c1.1162109-1.8466797,1.0673828-4.0429688-0.1210938-6.5703125c-0.6015625-1.28125-1.5498047-2.5263672-2.8193359-3.703125    c-0.8085947-0.7490234-1.6689463-1.6738281-2.5576181-2.7470703c-2.8974609-3.5058594-3.1162109-8.2685547-0.5439453-11.8496094    C17.103241,5.7807617,25.259491,2.2280273,25.6042175,2.0795898c0.1289063-0.0546875,0.2626953-0.0810547,0.3945313-0.0810547    c0.0009766,0,0.0009766,0,0.0009766,0s0,0,0.0009766,0c0.1318359,0,0.265625,0.0263672,0.3935547,0.0810547    c0.3457031,0.1484375,8.5029297,3.7011719,12.5390625,9.3193359c2.5732422,3.5820313,2.3544922,8.34375-0.5439453,11.8496094    c-0.8916016,1.0771484-1.7519531,2.0019531-2.5576172,2.7470703c-1.2675781,1.1748047-2.2167969,2.4208984-2.8193359,3.703125    c-1.1884766,2.5273438-1.2373047,4.7236328-0.1455078,6.5283203l1.6464844,3.0458984    c2.0527344-0.7792969,7.3164063-2.2929688,12.4111328,0.1992188c2.3359375,1.1445313,3.5341797,3.5185547,2.9140625,5.7734375    c-0.5449219,1.9794922-2.2939453,3.4697266-5.1953125,4.4306641c-0.3212891,0.0810547-6.0634766,1.3974609-14.0449219-1.9511719    l-4.5986328-2.0429688l-4.5791016,2.0351563C16.9889832,49.5756836,13.2516775,50.0014648,10.7565603,50.0014648z     M28.3395691,44.5327148l3.0517578,1.3564453c7.3671875,3.0898438,12.6533203,1.8789063,12.7041016,1.8652344    c2.1474609-0.7148438,3.4580078-1.7451172,3.8154297-3.0390625c0.3613281-1.3144531-0.40625-2.7314453-1.8652344-3.4462891    c-5.4580078-2.671875-11.3671875,0.0908203-11.5410156,0.1738281L28.3395691,44.5327148z M7.985076,47.777832    c0.0205078,0,5.3398438,1.1660156,12.6425791-1.8964844l3.0322266-1.3486328l-6.1640625-3.0888672    c-0.1826172-0.0869141-6.1142588-2.8330078-11.5410166-0.1748047c-1.4599609,0.7148438-2.2265623,2.1318359-1.8652344,3.4462891    C4.4460135,46.0092773,5.7565603,47.0395508,7.985076,47.777832L7.985076,47.777832z M19.3044128,40.112793l6.6953125,3.3564453    l6.6943359-3.3554688l-1.5625-2.8935547c-1.4150391-2.3359375-1.3984375-5.2460938,0.0703125-8.3730469    c0.7128906-1.5146484,1.8134766-2.9677734,3.2705078-4.3183594c0.7412109-0.6865234,1.5400391-1.5458984,2.3759766-2.5556641    c2.3466797-2.8369141,2.5273438-6.5302734,0.4599609-9.4082031c-0.8896484-1.2392578-2.0224609-2.3789063-3.2304688-3.3974609    c2.1210938,2.75,3.6308594,5.9902344,2.7050781,9.1083984c-0.0175781,0.0576172-0.0400391,0.1142578-0.0673828,0.1679688    c-1.2265625,2.4140625-5.0244141,6.4794922-10.7158203,4.8720703c-5.6904297,1.6074219-9.4882813-2.4570313-10.7158213-4.8720703    c-0.0273438-0.0537109-0.0498047-0.1103516-0.0673828-0.1679688c-0.9257813-3.1181641,0.5830078-6.3574219,2.7041025-9.1074219    c-1.2070313,1.0175781-2.3398447,2.1582031-3.2294931,3.3974609c-2.0664063,2.8759766-1.8857422,6.5693359,0.4599609,9.4082031    c0.8330078,1.0048828,1.6318369,1.8652344,2.3759775,2.5546875c1.4589844,1.3515625,2.5595703,2.8046875,3.2705078,4.3193359    c1.46875,3.1259766,1.4853516,6.0361328,0.0458984,8.4140625L19.3044128,40.112793z M25.9997253,9.7524414    c2.7734375,0,5.0380859,1.5224609,5.7705078,3.8789063c0.6220703,2.0019531,0.0878906,4.1865234-1.5888672,6.4912109    c-0.0273438,0.0380859-0.0576172,0.0742188-0.0908203,0.1083984l-1.4111328,1.4541016    c3.8642578-0.0595703,5.8916016-3.4804688,6.2119141-4.0693359c1.3144531-4.7900391-5.5029297-10.9355469-8.8916016-13.3945313    c-3.3876953,2.4589844-10.2050791,8.6025391-8.8916016,13.3925781c0.3193359,0.5810547,2.3632813,3.9951172,6.2089844,4.0673828    l-1.4072266-1.4501953c-0.0332031-0.0341797-0.0634766-0.0703125-0.0908203-0.1083984    c-1.6757813-2.3046875-2.2109375-4.4882813-1.5898438-6.4902344C20.9616394,11.2749023,23.2262878,9.7524414,25.9997253,9.7524414    z M24.7858582,20.3227539l0.953125,0.5097656c0.046875,0.0253906,0.0908203,0.0537109,0.1328125,0.0859375l0.1279297,0.0976563    l0.1279297-0.0976563c0.0419922-0.0322266,0.0869141-0.0605469,0.1337891-0.0859375l0.953125-0.5107422l1.390625-1.4316406    c1.2529297-1.7441406,1.6748047-3.3134766,1.2548828-4.6650391c-0.5664063-1.8251953-2.4335938-2.4726563-3.8603516-2.4726563    s-3.2939453,0.6474609-3.8603516,2.4726563c-0.4189453,1.3515625,0.0039063,2.9208984,1.2558594,4.6650391L24.7858582,20.3227539z    "/></g></g><text x="0" y="67" fill="#000000" font-size="5px" font-weight="bold" font-family="'Helvetica Neue', Helvetica, Arial-Unicode, Arial, Sans-serif">Created by Dinosoft Labs</text><text x="0" y="72" fill="#000000" font-size="5px" font-weight="bold" font-family="'Helvetica Neue', Helvetica, Arial-Unicode, Arial, Sans-serif">from the Noun Project</text></svg>